<svg width="32" height="32" viewBox="272 16 32 32" fill="none" xmlns="http://www.w3.org/2000/svg">
<path d="M42.9078 28.7L33.1578 40.459C33.0169 40.6292 32.8399 40.7661 32.6397 40.8596C32.4395 40.9531 32.221 41.0011 32 41C31.7796 41.0005 31.5619 40.9523 31.3623 40.8588C31.1628 40.7653 30.9865 40.6288 30.8459 40.459L21.0922 28.7C20.9638 28.5466 20.8681 28.3686 20.8111 28.1769C20.754 27.9852 20.7367 27.7839 20.7603 27.5853C20.7838 27.3862 20.8471 27.1938 20.9464 27.0197C21.0458 26.8456 21.1792 26.6933 21.3387 26.5718C24.4028 24.2409 28.1501 22.9855 32 23C35.8499 22.9855 39.5971 24.2409 42.6612 26.5718C42.8207 26.6933 42.9541 26.8456 43.0535 27.0197C43.1529 27.1938 43.2162 27.3862 43.2397 27.5853C43.2632 27.7839 43.246 27.9852 43.1889 28.1769C43.1318 28.3686 43.0362 28.5466 42.9078 28.7Z" fill="#D2D2D2"/>
<path d="M107.24 27.5853C107.216 27.3862 107.153 27.1938 107.054 27.0197C106.954 26.8456 106.821 26.6933 106.661 26.5718C103.597 24.2409 99.8499 22.9855 96 23C92.1501 22.9855 88.4028 24.2409 85.3387 26.5718C85.1792 26.6933 85.0458 26.8456 84.9464 27.0197C84.8471 27.1938 84.7838 27.3862 84.7603 27.5853C84.7367 27.7839 84.754 27.9852 84.8111 28.1769C84.8681 28.3686 84.9638 28.5466 85.0922 28.7L94.8422 40.459C94.9831 40.6292 95.1601 40.7661 95.3603 40.8596C95.5605 40.9531 95.779 41.0011 96 41C96.2203 41.0005 96.4381 40.9523 96.6376 40.8588C96.8371 40.7653 97.0135 40.6288 97.154 40.459L106.904 28.7C107.033 28.5469 107.129 28.369 107.187 28.1773C107.245 27.9856 107.263 27.7842 107.24 27.5853ZM102.855 31.2359C100.865 29.7828 98.4642 28.9997 96 28.9997C93.5357 28.9997 91.1352 29.7828 89.145 31.2359L86.2584 27.7568C89.0597 25.6307 92.4832 24.4861 96 24.5C99.5168 24.4861 102.94 25.6307 105.742 27.7568L102.855 31.2359Z" fill="#D2D2D2"/>
<path d="M171.24 27.5853C171.216 27.3862 171.153 27.1938 171.054 27.0197C170.954 26.8456 170.821 26.6933 170.661 26.5718C167.597 24.2409 163.85 22.9855 160 23C156.15 22.9855 152.403 24.2409 149.339 26.5718C149.179 26.6933 149.046 26.8456 148.946 27.0197C148.847 27.1938 148.784 27.3862 148.76 27.5853C148.737 27.7839 148.754 27.9852 148.811 28.1769C148.868 28.3686 148.964 28.5466 149.092 28.7L158.842 40.459C158.983 40.6292 159.16 40.7661 159.36 40.8596C159.561 40.9531 159.779 41.0011 160 41C160.22 41.0005 160.438 40.9523 160.638 40.8588C160.837 40.7653 161.014 40.6288 161.154 40.459L170.904 28.7C171.033 28.5469 171.129 28.369 171.187 28.1773C171.245 27.9856 171.263 27.7842 171.24 27.5853ZM163.972 34.7103C162.798 33.9202 161.415 33.4982 160 33.4982C158.585 33.4982 157.202 33.9202 156.028 34.7103L150.258 27.7568C153.06 25.6307 156.483 24.4861 160 24.5C163.517 24.4861 166.94 25.6307 169.742 27.7568L163.972 34.7103Z" fill="#D2D2D2"/>
<path d="M235.24 27.5853C235.216 27.3862 235.153 27.1938 235.054 27.0197C234.954 26.8456 234.821 26.6933 234.661 26.5718C231.597 24.2409 227.85 22.9855 224 23C220.15 22.9855 216.403 24.2409 213.339 26.5718C213.179 26.6933 213.046 26.8456 212.946 27.0197C212.847 27.1938 212.784 27.3862 212.76 27.5853C212.737 27.7839 212.754 27.9852 212.811 28.1769C212.868 28.3686 212.964 28.5466 213.092 28.7L222.842 40.459C222.983 40.6292 223.16 40.7661 223.36 40.8596C223.561 40.9531 223.779 41.0011 224 41C224.22 41.0005 224.438 40.9523 224.638 40.8588C224.837 40.7653 225.014 40.6288 225.154 40.459L234.904 28.7C235.033 28.5469 235.129 28.369 235.187 28.1773C235.245 27.9856 235.263 27.7842 235.24 27.5853ZM224 39.5L214.258 27.7568C217.06 25.6307 220.483 24.4861 224 24.5C227.517 24.4861 230.94 25.6307 233.742 27.7568L224 39.5Z" fill="#D2D2D2"/>
<path d="M297.531 29.2193C297.6 29.289 297.656 29.3718 297.693 29.4628C297.731 29.5538 297.75 29.6514 297.75 29.75C297.75 29.8485 297.731 29.9461 297.693 30.0371C297.656 30.1282 297.6 30.2109 297.531 30.2806C297.461 30.3503 297.378 30.4056 297.287 30.4433C297.196 30.481 297.099 30.5004 297 30.5004C296.901 30.5004 296.804 30.481 296.713 30.4433C296.622 30.4056 296.539 30.3503 296.469 30.2806L294.75 28.5603L293.031 30.2806C292.89 30.4213 292.699 30.5004 292.5 30.5004C292.301 30.5004 292.11 30.4213 291.969 30.2806C291.829 30.1399 291.75 29.949 291.75 29.75C291.75 29.5509 291.829 29.3601 291.969 29.2193L293.69 27.5L291.969 25.7806C291.9 25.7109 291.844 25.6282 291.807 25.5371C291.769 25.4461 291.75 25.3485 291.75 25.25C291.75 25.1514 291.769 25.0538 291.807 24.9628C291.844 24.8718 291.9 24.789 291.969 24.7193C292.11 24.5786 292.301 24.4996 292.5 24.4996C292.599 24.4996 292.696 24.519 292.787 24.5567C292.878 24.5944 292.961 24.6497 293.031 24.7193L294.75 26.4397L296.469 24.7193C296.539 24.6497 296.622 24.5944 296.713 24.5567C296.804 24.519 296.901 24.4996 297 24.4996C297.099 24.4996 297.196 24.519 297.287 24.5567C297.378 24.5944 297.461 24.6497 297.531 24.7193C297.6 24.789 297.656 24.8718 297.693 24.9628C297.731 25.0538 297.75 25.1514 297.75 25.25C297.75 25.3485 297.731 25.4461 297.693 25.5371C297.656 25.6282 297.6 25.7109 297.531 25.7806L295.81 27.5L297.531 29.2193ZM295.392 32.2812C295.255 32.1936 295.125 32.0951 295.003 31.9868C294.934 31.9244 294.844 31.8898 294.751 31.8898C294.658 31.8898 294.569 31.9244 294.5 31.9868C293.928 32.4963 293.183 32.7679 292.418 32.7458C291.652 32.7238 290.924 32.4099 290.382 31.8684C289.841 31.3269 289.527 30.5988 289.505 29.8334C289.483 29.0679 289.755 28.323 290.264 27.7512C290.326 27.6824 290.36 27.5933 290.36 27.5009C290.36 27.4085 290.326 27.3194 290.264 27.2506C289.83 26.7638 289.566 26.1488 289.513 25.4987C289.46 24.8485 289.62 24.1988 289.969 23.6478C290.002 23.593 290.021 23.5305 290.024 23.4662C290.026 23.402 290.012 23.3382 289.983 23.281C289.954 23.2237 289.91 23.175 289.857 23.1394C289.803 23.1038 289.741 23.0826 289.677 23.0778C289.122 23.0259 288.562 23 288 23C284.15 22.9855 280.403 24.2409 277.339 26.5718C277.179 26.6933 277.046 26.8456 276.946 27.0197C276.847 27.1938 276.784 27.3862 276.76 27.5853C276.737 27.7839 276.754 27.9852 276.811 28.1769C276.868 28.3686 276.964 28.5466 277.092 28.7L286.842 40.459C286.983 40.6292 287.16 40.7661 287.36 40.8596C287.561 40.9531 287.779 41.0011 288 41C288.22 41.0005 288.438 40.9523 288.638 40.8588C288.837 40.7653 289.014 40.6288 289.154 40.459L295.477 32.8362C295.511 32.7954 295.536 32.7479 295.55 32.6967C295.565 32.6456 295.568 32.592 295.56 32.5395C295.552 32.4871 295.533 32.4369 295.504 32.3924C295.475 32.3478 295.437 32.31 295.392 32.2812Z" fill="#D2D2D2"/>
<path d="M355.772 37.3005L353.154 40.4587C353.014 40.6284 352.837 40.7656 352.637 40.8591C352.438 40.9526 352.22 41.0003 352 40.9997C351.779 41.0008 351.56 40.9526 351.36 40.8591C351.16 40.7656 350.983 40.6288 350.843 40.4587L341.093 28.6999C340.964 28.5466 340.868 28.3682 340.811 28.1765C340.754 27.985 340.737 27.784 340.761 27.5857C340.784 27.3866 340.847 27.1934 340.946 27.0193C341.045 26.8453 341.179 26.6934 341.339 26.572C342.282 25.8541 343.291 25.2384 344.347 24.7302L355.772 37.3005ZM352 22.9997C355.85 22.9852 359.597 24.2411 362.661 26.572C362.82 26.6934 362.954 26.8453 363.054 27.0193C363.153 27.1934 363.217 27.3866 363.24 27.5857C363.263 27.7844 363.245 27.9859 363.187 28.1775C363.13 28.3691 363.033 28.5469 362.904 28.6999L357.707 34.9675L347.38 23.6062C348.877 23.2026 350.429 22.9938 352 22.9997Z" fill="#585858"/>
<path d="M344.482 23.7307L359.5 40.254" stroke="#D2D2D2" stroke-width="1.5" stroke-linecap="round"/>
</svg>