<svg width="32" height="32" viewBox="16 16 32 32" fill="none" xmlns="http://www.w3.org/2000/svg">
<path d="M38.75 25.25H23C22.4033 25.25 21.831 25.4871 21.409 25.909C20.9871 26.331 20.75 26.9033 20.75 27.5V36.5C20.75 37.0967 20.9871 37.669 21.409 38.091C21.831 38.5129 22.4033 38.75 23 38.75H38.75C39.3467 38.75 39.919 38.5129 40.341 38.091C40.7629 37.669 41 37.0967 41 36.5V27.5C41 26.9033 40.7629 26.331 40.341 25.909C39.919 25.4871 39.3467 25.25 38.75 25.25ZM39.5 36.5C39.5 36.6989 39.421 36.8897 39.2803 37.0303C39.1397 37.171 38.9489 37.25 38.75 37.25H23C22.8011 37.25 22.6103 37.171 22.4697 37.0303C22.329 36.8897 22.25 36.6989 22.25 36.5V27.5C22.25 27.3011 22.329 27.1103 22.4697 26.9697C22.6103 26.829 22.8011 26.75 23 26.75H38.75C38.9489 26.75 39.1397 26.829 39.2803 26.9697C39.421 27.1103 39.5 27.3011 39.5 27.5V36.5ZM44 29V35C44 35.1989 43.921 35.3897 43.7803 35.5303C43.6397 35.671 43.4489 35.75 43.25 35.75C43.0511 35.75 42.8603 35.671 42.7197 35.5303C42.579 35.3897 42.5 35.1989 42.5 35V29C42.5 28.8011 42.579 28.6103 42.7197 28.4697C42.8603 28.329 43.0511 28.25 43.25 28.25C43.4489 28.25 43.6397 28.329 43.7803 28.4697C43.921 28.6103 44 28.8011 44 29Z" fill="#D2D2D2"/>
<path d="M105 27.5V36.5C105 37.0967 104.763 37.669 104.341 38.091C103.919 38.5129 103.347 38.75 102.75 38.75H87C86.4033 38.75 85.831 38.5129 85.409 38.091C84.9871 37.669 84.75 37.0967 84.75 36.5V27.5C84.75 26.9033 84.9871 26.331 85.409 25.909C85.831 25.4871 86.4033 25.25 87 25.25H102.75C103.347 25.25 103.919 25.4871 104.341 25.909C104.763 26.331 105 26.9033 105 27.5ZM103.5 27.5C103.5 27.3011 103.421 27.1103 103.28 26.9697C103.14 26.829 102.949 26.75 102.75 26.75H87C86.8011 26.75 86.6103 26.829 86.4697 26.9697C86.329 27.1103 86.25 27.3011 86.25 27.5V36.5C86.25 36.6989 86.329 36.8897 86.4697 37.0303C86.2708 37.0303 86.6103 37.171 86.4697 37.0303H102.22C102.419 37.0303 103.14 37.171 103.28 37.0303C103.421 36.8897 103.5 36.6989 103.5 36.5V27.5ZM107.25 28.25C107.051 28.25 106.86 28.329 106.72 28.4697C106.579 28.6103 106.5 28.8011 106.5 29V35C106.5 35.1989 106.579 35.3897 106.72 35.5303C106.86 35.671 107.051 35.75 107.25 35.75C107.449 35.75 107.64 35.671 107.78 35.5303C107.921 35.3897 108 35.1989 108 35V29C108 28.8011 107.921 28.6103 107.78 28.4697C107.64 28.329 107.449 28.25 107.25 28.25Z" fill="#D2D2D2"/>
<path d="M89.55 35V29C89.55 28.8011 89.471 28.6103 89.3303 28.4697C89.1897 28.329 88.9989 28.25 88.8 28.25H88.5C88.3011 28.25 88.1103 28.329 87.9697 28.4697C87.829 28.6103 87.75 28.8011 87.75 29V35C87.75 35.1989 87.829 35.3897 87.9697 35.5303C88.1103 35.671 88.3011 35.75 88.5 35.75H88.8C88.9989 35.75 89.1897 35.671 89.3303 35.5303C89.471 35.3897 89.55 35.1989 89.55 35Z" fill="#FF0000"/>
<path d="M154.75 29V35C154.75 35.1989 154.671 35.3897 154.53 35.5303C154.39 35.671 154.199 35.75 154 35.75H152.5C152.301 35.75 152.11 35.671 151.97 35.5303C151.829 35.3897 151.75 35.1989 151.75 35V29C151.75 28.8011 151.829 28.6103 151.97 28.4697C152.11 28.329 152.301 28.25 152.5 28.25H154C154.199 28.25 154.39 28.329 154.53 28.4697C154.671 28.6103 154.75 28.8011 154.75 29ZM169 27.5V36.5C169 37.0967 168.763 37.669 168.341 38.091C167.919 38.5129 167.347 38.75 166.75 38.75H151C150.403 38.75 149.831 38.5129 149.409 38.091C148.987 37.669 148.75 37.0967 148.75 36.5V27.5C148.75 26.9033 148.987 26.331 149.409 25.909C149.831 25.4871 150.403 25.25 151 25.25H166.75C167.347 25.25 167.919 25.4871 168.341 25.909C168.763 26.331 169 26.9033 169 27.5ZM167.5 27.5C167.5 27.3011 167.421 27.1103 167.28 26.9697C167.14 26.829 166.949 26.75 166.75 26.75H151C150.801 26.75 150.61 26.829 150.47 26.9697C150.329 27.1103 150.25 27.3011 150.25 27.5V36.5C150.25 36.6989 150.329 36.8897 150.47 37.0303C150.61 37.171 150.801 37.25 151 37.25H166.75C166.949 37.25 167.14 37.171 167.28 37.0303C167.421 36.8897 167.5 36.6989 167.5 36.5V27.5ZM171.25 28.25C171.051 28.25 170.86 28.329 170.72 28.4697C170.579 28.6103 170.5 28.8011 170.5 29V35C170.5 35.1989 170.579 35.3897 170.72 35.5303C170.86 35.671 171.051 35.75 171.25 35.75C171.449 35.75 171.64 35.671 171.78 35.5303C171.921 35.3897 172 35.1989 172 35V29C172 28.8011 171.921 28.6103 171.78 28.4697C171.64 28.329 171.449 28.25 171.25 28.25Z" fill="#D2D2D2"/>
<path d="M219.95 29V35C219.95 35.1989 219.871 35.3897 219.73 35.5303C219.59 35.671 219.399 35.75 219.2 35.75H216.5C216.301 35.75 216.11 35.671 215.97 35.5303C215.829 35.3897 215.75 35.1989 215.75 35V29C215.75 28.8011 215.829 28.6103 215.97 28.4697C216.11 28.329 216.301 28.25 216.5 28.25H219.2C219.399 28.25 219.59 28.329 219.73 28.4697C219.871 28.6103 219.95 28.8011 219.95 29ZM233 27.5V36.5C233 37.0967 232.763 37.669 232.341 38.091C231.919 38.5129 231.347 38.75 230.75 38.75H215C214.403 38.75 213.831 38.5129 213.409 38.091C212.987 37.669 212.75 37.0967 212.75 36.5V27.5C212.75 26.9033 212.987 26.331 213.409 25.909C213.831 25.4871 214.403 25.25 215 25.25H230.75C231.347 25.25 231.919 25.4871 232.341 25.909C232.763 26.331 233 26.9033 233 27.5ZM231.5 27.5C231.5 27.3011 231.421 27.1103 231.28 26.9697C231.14 26.829 230.949 26.75 230.75 26.75H215C214.801 26.75 214.61 26.829 214.47 26.9697C214.329 27.1103 214.25 27.3011 214.25 27.5V36.5C214.25 36.6989 214.329 36.8897 214.47 37.0303C214.61 37.171 214.801 37.25 215 37.25H230.75C230.949 37.25 231.14 37.171 231.28 37.0303C231.421 36.8897 231.5 36.6989 231.5 36.5V27.5ZM235.25 28.25C235.051 28.25 234.86 28.329 234.72 28.4697C234.579 28.6103 234.5 28.8011 234.5 29V35C234.5 35.1989 234.579 35.3897 234.72 35.5303C234.86 35.671 235.051 35.75 235.25 35.75C235.449 35.75 235.64 35.671 235.78 35.5303C235.921 35.3897 236 35.1989 236 35V29C236 28.8011 235.921 28.6103 235.78 28.4697C235.64 28.329 235.449 28.25 235.25 28.25Z" fill="#D2D2D2"/>
<path d="M285.3 29V35C285.3 35.1989 285.221 35.3897 285.08 35.5303C284.94 35.671 284.749 35.75 284.55 35.75H280.5C280.301 35.75 280.11 35.671 279.97 35.5303C279.829 35.3897 279.75 35.1989 279.75 35V29C279.75 28.8011 279.829 28.6103 279.97 28.4697C280.11 28.329 280.301 28.25 280.5 28.25H284.55C284.749 28.25 284.94 28.329 285.08 28.4697C285.221 28.6103 285.3 28.8011 285.3 29ZM297 27.5V36.5C297 37.0967 296.763 37.669 296.341 38.091C295.919 38.5129 295.347 38.75 294.75 38.75H279C278.403 38.75 277.831 38.5129 277.409 38.091C276.987 37.669 276.75 37.0967 276.75 36.5V27.5C276.75 26.9033 276.987 26.331 277.409 25.909C277.831 25.4871 278.403 25.25 279 25.25H294.75C295.347 25.25 295.919 25.4871 296.341 25.909C296.763 26.331 297 26.9033 297 27.5ZM295.5 27.5C295.5 27.3011 295.421 27.1103 295.28 26.9697C295.14 26.829 294.949 26.75 294.75 26.75H279C278.801 26.75 278.61 26.829 278.47 26.9697C278.329 27.1103 278.25 27.3011 278.25 27.5V36.5C278.25 36.6989 278.329 36.8897 278.47 37.0303C278.61 37.171 278.801 37.25 279 37.25H294.75C294.949 37.25 295.14 37.171 295.28 37.0303C295.421 36.8897 295.5 36.6989 295.5 36.5V27.5ZM299.25 28.25C299.051 28.25 298.86 28.329 298.72 28.4697C298.579 28.6103 298.5 28.8011 298.5 29V35C298.5 35.1989 298.579 35.3897 298.72 35.5303C298.86 35.671 299.051 35.75 299.25 35.75C299.449 35.75 299.64 35.671 299.78 35.5303C299.921 35.3897 300 35.1989 300 35V29C300 28.8011 299.921 28.6103 299.78 28.4697C299.64 28.329 299.449 28.25 299.25 28.25Z" fill="#D2D2D2"/>
<path d="M350.5 29V35C350.5 35.1989 350.421 35.3897 350.28 35.5303C350.14 35.671 349.949 35.75 349.75 35.75H344.5C344.301 35.75 344.11 35.671 343.97 35.5303C343.829 35.3897 343.75 35.1989 343.75 35V29C343.75 28.8011 343.829 28.6103 343.97 28.4697C344.11 28.329 344.301 28.25 344.5 28.25H349.75C349.949 28.25 350.14 28.329 350.28 28.4697C350.421 28.6103 350.5 28.8011 350.5 29ZM361 27.5V36.5C361 37.0967 360.763 37.669 360.341 38.091C359.919 38.5129 359.347 38.75 358.75 38.75H343C342.403 38.75 341.831 38.5129 341.409 38.091C340.987 37.669 340.75 37.0967 340.75 36.5V27.5C340.75 26.9033 340.987 26.331 341.409 25.909C341.831 25.4871 342.403 25.25 343 25.25H358.75C359.347 25.25 359.919 25.4871 360.341 25.909C360.763 26.331 361 26.9033 361 27.5ZM359.5 27.5C359.5 27.3011 359.421 27.1103 359.28 26.9697C359.14 26.829 358.949 26.75 358.75 26.75H343C342.801 26.75 342.61 26.829 342.47 26.9697C342.329 27.1103 342.25 27.3011 342.25 27.5V36.5C342.25 36.6989 342.329 36.8897 342.47 37.0303C342.61 37.171 342.801 37.25 343 37.25H358.75C358.949 37.25 359.14 37.171 359.28 37.0303C359.421 36.8897 359.5 36.6989 359.5 36.5V27.5ZM363.25 28.25C363.051 28.25 362.86 28.329 362.72 28.4697C362.579 28.6103 362.5 28.8011 362.5 29V35C362.5 35.1989 362.579 35.3897 362.72 35.5303C362.86 35.671 363.051 35.75 363.25 35.75C363.449 35.75 363.64 35.671 363.78 35.5303C363.921 35.3897 364 35.1989 364 35V29C364 28.8011 363.921 28.6103 363.78 28.4697C363.64 28.329 363.449 28.25 363.25 28.25Z" fill="#D2D2D2"/>
<path d="M415.7 29V35C415.7 35.1989 415.621 35.3897 415.48 35.5303C415.34 35.671 415.149 35.75 414.95 35.75H408.5C408.301 35.75 408.11 35.671 407.97 35.5303C407.829 35.3897 407.75 35.1989 407.75 35V29C407.75 28.8011 407.829 28.6103 407.97 28.4697C408.11 28.329 408.301 28.25 408.5 28.25H414.95C415.149 28.25 415.34 28.329 415.48 28.4697C415.621 28.6103 415.7 28.8011 415.7 29ZM425 27.5V36.5C425 37.0967 424.763 37.669 424.341 38.091C423.919 38.5129 423.347 38.75 422.75 38.75H407C406.403 38.75 405.831 38.5129 405.409 38.091C404.987 37.669 404.75 37.0967 404.75 36.5V27.5C404.75 26.9033 404.987 26.331 405.409 25.909C405.831 25.4871 406.403 25.25 407 25.25H422.75C423.347 25.25 423.919 25.4871 424.341 25.909C424.763 26.331 425 26.9033 425 27.5ZM423.5 27.5C423.5 27.3011 423.421 27.1103 423.28 26.9697C423.14 26.829 422.949 26.75 422.75 26.75H407C406.801 26.75 406.61 26.829 406.47 26.9697C406.329 27.1103 406.25 27.3011 406.25 27.5V36.5C406.25 36.6989 406.329 36.8897 406.47 37.0303C406.61 37.171 406.801 37.25 407 37.25H422.75C422.949 37.25 423.14 37.171 423.28 37.0303C423.421 36.8897 423.5 36.6989 423.5 36.5V27.5ZM427.25 28.25C427.051 28.25 426.86 28.329 426.72 28.4697C426.579 28.6103 426.5 28.8011 426.5 29V35C426.5 35.1989 426.579 35.3897 426.72 35.5303C426.86 35.671 427.051 35.75 427.25 35.75C427.449 35.75 427.64 35.671 427.78 35.5303C427.921 35.3897 428 35.1989 428 35V29C428 28.8011 427.921 28.6103 427.78 28.4697C427.64 28.329 427.449 28.25 427.25 28.25Z" fill="#D2D2D2"/>
<path d="M480.9 29V35C480.9 35.1989 480.821 35.3897 480.68 35.5303C480.54 35.671 480.349 35.75 480.15 35.75H472.5C472.301 35.75 472.11 35.671 471.97 35.5303C471.829 35.3897 471.75 35.1989 471.75 35V29C471.75 28.8011 471.829 28.6103 471.97 28.4697C472.11 28.329 472.301 28.25 472.5 28.25H480.15C480.349 28.25 480.54 28.329 480.68 28.4697C480.821 28.6103 480.9 28.8011 480.9 29ZM489 27.5V36.5C489 37.0967 488.763 37.669 488.341 38.091C487.919 38.5129 487.347 38.75 486.75 38.75H471C470.403 38.75 469.831 38.5129 469.409 38.091C468.987 37.669 468.75 37.0967 468.75 36.5V27.5C468.75 26.9033 468.987 26.331 469.409 25.909C469.831 25.4871 470.403 25.25 471 25.25H486.75C487.347 25.25 487.919 25.4871 488.341 25.909C488.763 26.331 489 26.9033 489 27.5ZM487.5 27.5C487.5 27.3011 487.421 27.1103 487.28 26.9697C487.14 26.829 486.949 26.75 486.75 26.75H471C470.801 26.75 470.61 26.829 470.47 26.9697C470.329 27.1103 470.25 27.3011 470.25 27.5V36.5C470.25 36.6989 470.329 36.8897 470.47 37.0303C470.61 37.171 470.801 37.25 471 37.25H486.75C486.949 37.25 487.14 37.171 487.28 37.0303C487.421 36.8897 487.5 36.6989 487.5 36.5V27.5ZM491.25 28.25C491.051 28.25 490.86 28.329 490.72 28.4697C490.579 28.6103 490.5 28.8011 490.5 29V35C490.5 35.1989 490.579 35.3897 490.72 35.5303C490.86 35.671 491.051 35.75 491.25 35.75C491.449 35.75 491.64 35.671 491.78 35.5303C491.921 35.3897 492 35.1989 492 35V29C492 28.8011 491.921 28.6103 491.78 28.4697C491.64 28.329 491.449 28.25 491.25 28.25Z" fill="#D2D2D2"/>
<path d="M547.3 29V35C547.3 35.1989 547.221 35.3897 547.08 35.5303C546.94 35.671 546.749 35.75 546.55 35.75H536.5C536.301 35.75 536.11 35.671 535.97 35.5303C535.829 35.3897 535.75 35.1989 535.75 35V29C535.75 28.8011 535.829 28.6103 535.97 28.4697C536.11 28.329 536.301 28.25 536.5 28.25H546.55C546.749 28.25 546.94 28.329 547.08 28.4697C547.221 28.6103 547.3 28.8011 547.3 29ZM553 27.5V36.5C553 37.0967 552.763 37.669 552.341 38.091C551.919 38.5129 551.347 38.75 550.75 38.75H535C534.403 38.75 533.831 38.5129 533.409 38.091C532.987 37.669 532.75 37.0967 532.75 36.5V27.5C532.75 26.9033 532.987 26.331 533.409 25.909C533.831 25.4871 534.403 25.25 535 25.25H550.75C551.347 25.25 551.919 25.4871 552.341 25.909C552.763 26.331 553 26.9033 553 27.5ZM551.5 27.5C551.5 27.3011 551.421 27.1103 551.28 26.9697C551.14 26.829 550.949 26.75 550.75 26.75H535C534.801 26.75 534.61 26.829 534.47 26.9697C534.329 27.1103 534.25 27.3011 534.25 27.5V36.5C534.25 36.6989 534.329 36.8897 534.47 37.0303C534.61 37.171 534.801 37.25 535 37.25H550.75C550.949 37.25 551.14 37.171 551.28 37.0303C551.421 36.8897 551.5 36.6989 551.5 36.5V27.5ZM555.25 28.25C555.051 28.25 554.86 28.329 554.72 28.4697C554.579 28.6103 554.5 28.8011 554.5 29V35C554.5 35.1989 554.579 35.3897 554.72 35.5303C554.86 35.671 555.051 35.75 555.25 35.75C555.449 35.75 555.64 35.671 555.78 35.5303C555.921 35.3897 556 35.1989 556 35V29C556 28.8011 555.921 28.6103 555.78 28.4697C555.64 28.329 555.449 28.25 555.25 28.25Z" fill="#D2D2D2"/>
<path d="M612.5 29V35C612.5 35.1989 612.421 35.3897 612.28 35.5303C612.14 35.671 611.949 35.75 611.75 35.75H600.5C600.301 35.75 600.11 35.671 599.97 35.5303C599.829 35.3897 599.75 35.1989 599.75 35V29C599.75 28.8011 599.829 28.6103 599.97 28.4697C600.11 28.329 600.301 28.25 600.5 28.25H611.75C611.949 28.25 612.14 28.329 612.28 28.4697C612.421 28.6103 612.5 28.8011 612.5 29ZM617 27.5V36.5C617 37.0967 616.763 37.669 616.341 38.091C615.919 38.5129 615.347 38.75 614.75 38.75H599C598.403 38.75 597.831 38.5129 597.409 38.091C596.987 37.669 596.75 37.0967 596.75 36.5V27.5C596.75 26.9033 596.987 26.331 597.409 25.909C597.831 25.4871 598.403 25.25 599 25.25H614.75C615.347 25.25 615.919 25.4871 616.341 25.909C616.763 26.331 617 26.9033 617 27.5ZM615.5 27.5C615.5 27.3011 615.421 27.1103 615.28 26.9697C615.14 26.829 614.949 26.75 614.75 26.75H599C598.801 26.75 598.61 26.829 598.47 26.9697C598.329 27.1103 598.25 27.3011 598.25 27.5V36.5C598.25 36.6989 598.329 36.8897 598.47 37.0303C598.61 37.171 598.801 37.25 599 37.25H614.75C614.949 37.25 615.14 37.171 615.28 37.0303C615.421 36.8897 615.5 36.6989 615.5 36.5V27.5ZM619.25 28.25C619.051 28.25 618.86 28.329 618.72 28.4697C618.579 28.6103 618.5 28.8011 618.5 29V35C618.5 35.1989 618.579 35.3897 618.72 35.5303C618.86 35.671 619.051 35.75 619.25 35.75C619.449 35.75 619.64 35.671 619.78 35.5303C619.921 35.3897 620 35.1989 620 35V29C620 28.8011 619.921 28.6103 619.78 28.4697C619.64 28.329 619.449 28.25 619.25 28.25Z" fill="#D2D2D2"/>
<path d="M678.75 25.25H663C662.403 25.25 661.831 25.4871 661.409 25.909C660.987 26.331 660.75 26.9033 660.75 27.5V36.5C660.75 37.0967 660.987 37.669 661.409 38.091C661.831 38.5129 662.403 38.75 663 38.75H678.75C679.347 38.75 679.919 38.5129 680.341 38.091C680.763 37.669 681 37.0967 681 36.5V27.5C681 26.9033 680.763 26.331 680.341 25.909C679.919 25.4871 679.347 25.25 678.75 25.25ZM679.5 36.5C679.5 36.6989 679.421 36.8897 679.28 37.0303C679.14 37.171 678.949 37.25 678.75 37.25H663C662.801 37.25 662.61 37.171 662.47 37.0303C662.329 36.8897 662.25 36.6989 662.25 36.5V27.5C662.25 27.3011 662.329 27.1103 662.47 26.9697C662.61 26.829 662.801 26.75 663 26.75H678.75C678.949 26.75 679.14 26.829 679.28 26.9697C679.421 27.1103 679.5 27.3011 679.5 27.5V36.5ZM678 29V35C678 35.1989 677.921 35.3897 677.78 35.5303C677.64 35.671 677.449 35.75 677.25 35.75H664.5C664.301 35.75 664.11 35.671 663.97 35.5303C663.829 35.3897 663.75 35.1989 663.75 35V29C663.75 28.8011 663.829 28.6103 663.97 28.4697C664.11 28.329 664.301 28.25 664.5 28.25H677.25C677.449 28.25 677.64 28.329 677.78 28.4697C677.921 28.6103 678 28.8011 678 29ZM684 29V35C684 35.1989 683.921 35.3897 683.78 35.5303C683.64 35.671 683.449 35.75 683.25 35.75C683.051 35.75 682.86 35.671 682.72 35.5303C682.579 35.3897 682.5 35.1989 682.5 35V29C682.5 28.8011 682.579 28.6103 682.72 28.4697C682.86 28.329 683.051 28.25 683.25 28.25C683.449 28.25 683.64 28.329 683.78 28.4697C683.921 28.6103 684 28.8011 684 29Z" fill="#D2D2D2"/>
</svg>