<svg width="32" height="32" viewBox="16 16 32 32" fill="none" xmlns="http://www.w3.org/2000/svg">
<path opacity="0.2" d="M38 27.5L32 32V23L38 27.5ZM32 41L38 36.5L32 32V41Z" fill="#D2D2D2"/>
<path d="M38.45 35.9L33.2497 32L38.45 28.1C38.5431 28.0301 38.6188 27.9396 38.6708 27.8354C38.7229 27.7313 38.75 27.6164 38.75 27.5C38.75 27.3836 38.7229 27.2687 38.6708 27.1646C38.6188 27.0604 38.5431 26.9699 38.45 26.9L32.45 22.4C32.3386 22.3164 32.2061 22.2655 32.0674 22.253C31.9286 22.2405 31.7892 22.2669 31.6646 22.3292C31.54 22.3915 31.4352 22.4872 31.362 22.6057C31.2888 22.7242 31.25 22.8607 31.25 23V30.5L26.45 26.9C26.2909 26.7807 26.0909 26.7294 25.8939 26.7575C25.697 26.7857 25.5194 26.8909 25.4 27.05C25.2807 27.2091 25.2294 27.4092 25.2575 27.6061C25.2857 27.803 25.3909 27.9807 25.55 28.1L30.7503 32L25.55 35.9C25.4712 35.9591 25.4048 36.0331 25.3546 36.1179C25.3045 36.2026 25.2715 36.2964 25.2575 36.3939C25.2294 36.5908 25.2807 36.7909 25.4 36.95C25.5194 37.1091 25.697 37.2143 25.8939 37.2425C26.0909 37.2706 26.2909 37.2193 26.45 37.1L31.25 33.5V41C31.25 41.1393 31.2888 41.2758 31.362 41.3943C31.4352 41.5128 31.54 41.6085 31.6646 41.6708C31.7892 41.7331 31.9286 41.7595 32.0674 41.747C32.2061 41.7345 32.3386 41.6836 32.45 41.6L38.45 37.1C38.5431 37.0301 38.6188 36.9396 38.6708 36.8354C38.7229 36.7313 38.75 36.6164 38.75 36.5C38.75 36.3836 38.7229 36.2687 38.6708 36.1646C38.6188 36.0604 38.5431 35.9699 38.45 35.9ZM32.75 24.5L36.7503 27.5L32.75 30.5V24.5ZM32.75 39.5V33.5L36.7503 36.5L32.75 39.5Z" fill="#D2D2D2"/>
<path opacity="0.2" d="M102 27.5L96 32V23L102 27.5ZM96 41L102 36.5L96 32V41Z" fill="#D2D2D2"/>
<path d="M102.45 35.9L97.2497 32L102.45 28.1C102.543 28.0301 102.619 27.9396 102.671 27.8354C102.723 27.7313 102.75 27.6164 102.75 27.5C102.75 27.3836 102.723 27.2687 102.671 27.1646C102.619 27.0604 102.543 26.9699 102.45 26.9L96.45 22.4C96.3386 22.3164 96.2061 22.2655 96.0674 22.253C95.9286 22.2405 95.7892 22.2669 95.6646 22.3292C95.54 22.3915 95.4352 22.4872 95.362 22.6057C95.2888 22.7242 95.25 22.8607 95.25 23V30.5L90.45 26.9C90.2909 26.7807 90.0908 26.7294 89.8939 26.7575C89.697 26.7857 89.5193 26.8909 89.4 27.05C89.2807 27.2091 89.2294 27.4092 89.2575 27.6061C89.2857 27.803 89.3909 27.9807 89.55 28.1L94.7503 32L89.55 35.9C89.4712 35.9591 89.4048 36.0331 89.3546 36.1179C89.3045 36.2026 89.2715 36.2964 89.2575 36.3939C89.2294 36.5908 89.2807 36.7909 89.4 36.95C89.5193 37.1091 89.697 37.2143 89.8939 37.2425C90.0908 37.2706 90.2909 37.2193 90.45 37.1L95.25 33.5V41C95.25 41.1393 95.2888 41.2758 95.362 41.3943C95.4352 41.5128 95.54 41.6085 95.6646 41.6708C95.7892 41.7331 95.9286 41.7595 96.0674 41.747C96.2061 41.7345 96.3386 41.6836 96.45 41.6L102.45 37.1C102.543 37.0301 102.619 36.9396 102.671 36.8354C102.723 36.7313 102.75 36.6164 102.75 36.5C102.75 36.3836 102.723 36.2687 102.671 36.1646C102.619 36.0604 102.543 35.9699 102.45 35.9ZM96.75 24.5L100.75 27.5L96.75 30.5V24.5ZM96.75 39.5V33.5L100.75 36.5L96.75 39.5ZM89.625 33.125C89.4025 33.125 89.185 33.059 89 32.9354C88.815 32.8118 88.6708 32.6361 88.5856 32.4305C88.5005 32.225 88.4782 31.9988 88.5216 31.7805C88.565 31.5623 88.6722 31.3618 88.8295 31.2045C88.9868 31.0472 89.1873 30.94 89.4055 30.8966C89.6238 30.8532 89.85 30.8755 90.0555 30.9606C90.2611 31.0458 90.4368 31.19 90.5604 31.375C90.684 31.56 90.75 31.7775 90.75 32C90.75 32.2984 90.6315 32.5845 90.4205 32.7955C90.2095 33.0065 89.9234 33.125 89.625 33.125ZM104.25 32C104.25 32.2225 104.184 32.44 104.06 32.625C103.937 32.81 103.761 32.9542 103.556 33.0394C103.35 33.1245 103.124 33.1468 102.906 33.1034C102.687 33.06 102.487 32.9528 102.33 32.7955C102.172 32.6382 102.065 32.4377 102.022 32.2195C101.978 32.0012 102 31.775 102.086 31.5695C102.171 31.3639 102.315 31.1882 102.5 31.0646C102.685 30.941 102.902 30.875 103.125 30.875C103.423 30.875 103.71 30.9935 103.92 31.2045C104.131 31.4155 104.25 31.7016 104.25 32Z" fill="#D2D2D2"/>
<path opacity="0.2" d="M164.5 36.5L158.5 41V32L164.5 36.5ZM163.7 26.9L158.5 23V32L163.7 28.1C163.793 28.0301 163.869 27.9396 163.921 27.8354C163.973 27.7313 164 27.6164 164 27.5C164 27.3836 163.973 27.2687 163.921 27.1646C163.869 27.0604 163.793 26.9699 163.7 26.9Z" fill="#D2D2D2"/>
<path d="M164.95 35.9L159.75 32L161.95 30.35C162.109 30.2307 162.214 30.053 162.242 29.8561C162.271 29.6592 162.219 29.4591 162.1 29.3C161.981 29.1409 161.803 29.0357 161.606 29.0075C161.409 28.9794 161.209 29.0307 161.05 29.15L159.25 30.5V24.5L161.05 25.85C161.129 25.9091 161.218 25.9521 161.314 25.9765C161.409 26.001 161.509 26.0064 161.606 25.9925C161.704 25.9785 161.797 25.9455 161.882 25.8954C161.967 25.8452 162.041 25.7788 162.1 25.7C162.159 25.6212 162.202 25.5315 162.227 25.4361C162.251 25.3407 162.256 25.2414 162.242 25.1439C162.229 25.0464 162.196 24.9526 162.145 24.8679C162.095 24.7831 162.029 24.7091 161.95 24.65L158.95 22.4C158.839 22.3164 158.706 22.2655 158.567 22.253C158.429 22.2405 158.289 22.2669 158.165 22.3292C158.04 22.3915 157.935 22.4872 157.862 22.6057C157.789 22.7242 157.75 22.8607 157.75 23V30.5L152.95 26.9C152.791 26.7807 152.591 26.7294 152.394 26.7575C152.197 26.7857 152.019 26.8909 151.9 27.05C151.781 27.2091 151.729 27.4092 151.758 27.6061C151.786 27.803 151.891 27.9807 152.05 28.1L157.25 32L152.05 35.9C151.971 35.9591 151.905 36.0331 151.855 36.1179C151.804 36.2026 151.771 36.2964 151.758 36.3939C151.729 36.5908 151.781 36.7909 151.9 36.95C152.019 37.1091 152.197 37.2143 152.394 37.2425C152.591 37.2706 152.791 37.2193 152.95 37.1L157.75 33.5V41C157.75 41.1393 157.789 41.2758 157.862 41.3943C157.935 41.5128 158.04 41.6085 158.165 41.6708C158.289 41.7331 158.429 41.7595 158.567 41.747C158.706 41.7345 158.839 41.6836 158.95 41.6L164.95 37.1C165.043 37.0301 165.119 36.9396 165.171 36.8354C165.223 36.7313 165.25 36.6164 165.25 36.5C165.25 36.3836 165.223 36.2687 165.171 36.1646C165.119 36.0604 165.043 35.9699 164.95 35.9ZM159.25 39.5V33.5L163.25 36.5L159.25 39.5ZM170.281 29.2194C170.35 29.2891 170.406 29.3718 170.443 29.4628C170.481 29.5539 170.5 29.6515 170.5 29.75C170.5 29.8485 170.481 29.9461 170.443 30.0372C170.406 30.1282 170.35 30.2109 170.281 30.2806C170.211 30.3503 170.128 30.4056 170.037 30.4433C169.946 30.481 169.849 30.5004 169.75 30.5004C169.651 30.5004 169.554 30.481 169.463 30.4433C169.372 30.4056 169.289 30.3503 169.219 30.2806L167.5 28.5603L165.781 30.2806C165.64 30.4214 165.449 30.5004 165.25 30.5004C165.051 30.5004 164.86 30.4214 164.719 30.2806C164.579 30.1399 164.5 29.949 164.5 29.75C164.5 29.551 164.579 29.3601 164.719 29.2194L166.44 27.5L164.719 25.7806C164.65 25.7109 164.594 25.6282 164.557 25.5372C164.519 25.4461 164.5 25.3485 164.5 25.25C164.5 25.1515 164.519 25.0539 164.557 24.9628C164.594 24.8718 164.65 24.7891 164.719 24.7194C164.86 24.5786 165.051 24.4996 165.25 24.4996C165.349 24.4996 165.446 24.519 165.537 24.5567C165.628 24.5944 165.711 24.6497 165.781 24.7194L167.5 26.4397L169.219 24.7194C169.289 24.6497 169.372 24.5944 169.463 24.5567C169.554 24.519 169.651 24.4996 169.75 24.4996C169.849 24.4996 169.946 24.519 170.037 24.5567C170.128 24.5944 170.211 24.6497 170.281 24.7194C170.35 24.7891 170.406 24.8718 170.443 24.9628C170.481 25.0539 170.5 25.1515 170.5 25.25C170.5 25.3485 170.481 25.4461 170.443 25.5372C170.406 25.6282 170.35 25.7109 170.281 25.7806L168.56 27.5L170.281 29.2194Z" fill="#D2D2D2"/>
</svg>